<svg width="50" height="50" viewBox="0 0 15 24" fill="red" xmlns="http://www.w3.org/2000/svg">
<path d="M13.7484 0.0049936L10.5065 0C6.86429 0 4.51056 2.31828 4.51056 5.90643V8.62969H1.25097C0.969302 8.62969 0.741211 8.84891 0.741211 9.11932V13.065C0.741211 13.3354 0.969562 13.5544 1.25097 13.5544H4.51056V23.5106C4.51056 23.781 4.73865 24 5.02032 24H9.27316C9.55483 24 9.78292 23.7808 9.78292 23.5106V13.5544H13.5941C13.8758 13.5544 14.1039 13.3354 14.1039 13.065L14.1055 9.11932C14.1055 8.98948 14.0516 8.86514 13.9562 8.77326C13.8607 8.68138 13.7307 8.62969 13.5954 8.62969H9.78292V6.32115C9.78292 5.21157 10.0583 4.64829 11.5639 4.64829L13.7478 4.64755C14.0293 4.64755 14.2573 4.42833 14.2573 4.15817V0.494367C14.2573 0.224462 14.0295 0.00549296 13.7484 0.0049936Z" fill="#192A3E"/>
</svg>
